<?xml version="1.0" encoding="UTF-8" standalone="no"?>
<svg
   width="100%"
   height="100%"
   viewBox="0 0 583 671"
   version="1.1"
   xml:space="preserve"
   style="fill-rule:evenodd;clip-rule:evenodd;"
   id="svg1"
   sodipodi:docname="Logo_Estampa.svg"
   inkscape:version="1.3.2 (091e20e, 2023-11-25, custom)"
   xmlns:inkscape="http://www.inkscape.org/namespaces/inkscape"
   xmlns:sodipodi="http://sodipodi.sourceforge.net/DTD/sodipodi-0.dtd"
   xmlns="http://www.w3.org/2000/svg"
   xmlns:svg="http://www.w3.org/2000/svg"><defs
     id="defs1" /><sodipodi:namedview
     id="namedview1"
     pagecolor="#ffffff"
     bordercolor="#000000"
     borderopacity="0.25"
     inkscape:showpageshadow="2"
     inkscape:pageopacity="0.0"
     inkscape:pagecheckerboard="0"
     inkscape:deskcolor="#d1d1d1"
     inkscape:zoom="1.7481371"
     inkscape:cx="291.45311"
     inkscape:cy="335.5"
     inkscape:window-width="3440"
     inkscape:window-height="1369"
     inkscape:window-x="-8"
     inkscape:window-y="-8"
     inkscape:window-maximized="1"
     inkscape:current-layer="g6" /><g
     id="g6"><path
       id="path50-3-0"
       d="M541.413,132.781l-210.739,-121.67c-25.658,-14.814 -57.374,-14.815 -83.033,-0.001l-206.124,119.007c-25.659,14.814 -41.517,42.28 -41.517,71.908l0,265.535c-0,29.628 15.858,57.095 41.516,71.909l208.432,120.338c25.659,14.814 57.375,14.814 83.033,0l208.432,-120.338c25.659,-14.814 41.517,-42.281 41.517,-71.909l-0,-262.871c-0,-29.628 -15.858,-57.094 -41.517,-71.908Z"
       style="fill:#d30000;fill-rule:nonzero;fill-opacity:1" /><path
       id="path49-1-7"
       d="M48.436,202.025l-0,265.535c-0,12.345 6.607,23.79 17.298,29.962l208.432,120.338c10.691,6.173 23.906,6.173 34.597,0l208.432,-120.338c10.691,-6.172 17.299,-17.617 17.299,-29.962l-0,-262.871c-0,-12.345 -6.608,-23.789 -17.299,-29.962l-210.739,-121.67c-10.691,-6.172 -23.906,-6.172 -34.597,0l-206.124,119.006c-10.692,6.173 -17.299,17.617 -17.299,29.962Z"
       style="fill:#fff;fill-rule:nonzero;" /><g
       id="g3-4-4"><path
         id="path5-6-2"
         d="M372.169,145.303c16.775,-1.321 33.395,2.071 45.56,9.095l20.673,11.936c14.977,8.647 20.614,20.751 15.412,32.716c-5.203,11.964 -19.164,23.697 -40.561,36.05l-121.788,70.314l-46.241,-26.696l114.823,-66.294c9.19,-5.305 14.345,-9.868 15.466,-13.689c1.121,-3.821 -1.6,-7.625 -8.163,-11.415c-6.563,-3.789 -13.109,-5.362 -19.637,-4.719c-6.528,0.643 -14.435,3.645 -23.721,9.007l-49.623,28.65l-32.733,-18.899l48.172,-27.812c9.093,-5.25 14.246,-9.646 15.461,-13.189c1.215,-3.543 -1.172,-7.044 -7.161,-10.501c-5.989,-3.458 -12.052,-4.836 -18.189,-4.135c-6.136,0.702 -13.751,3.677 -22.844,8.927l-113.372,65.455l-45.992,-26.553l119.612,-69.058c21.476,-12.399 41.684,-20.471 62.247,-23.447c20.545,-2.973 41.379,0.328 56.318,8.953l19.073,11.012c11.061,6.386 15.609,15.638 12.736,24.709l-0.011,0.033c1.49,-0.182 2.985,-0.332 4.483,-0.45l0,-0Z"
         style="fill:#00107a;fill-rule:nonzero;" /></g><g
       id="g2-7-3"><path
         id="path41-7-6"
         d="M481.903,457.367c11.996,-20.836 17.994,-43.41 17.994,-67.723l-0,-93.104c-0,-24.429 -5.998,-40.049 -17.994,-46.858c-10.591,-6.011 -24.753,-4.608 -42.485,4.21l-133.275,76.946l0,248.586l133.23,-76.92c17.753,-11.68 31.93,-26.726 42.53,-45.137Z"
         style="fill:#00107a;fill-rule:nonzero;" /></g><g
       id="g4-5-2"><path
         id="path37-6-4"
         d="M352.152,500.718l0,-144.651l75.619,-43.659c8.503,-4.909 14.982,-6.107 19.436,-3.594c4.454,2.513 6.681,8.738 6.681,18.673l-0,84.687c-0,9.819 -2.202,18.512 -6.605,26.081c-4.404,7.569 -10.908,13.837 -19.513,18.805l-75.618,43.658Z"
         style="fill:#fff;fill-rule:nonzero;stroke:#000;stroke-width:0.27px;" /></g><path
       id="path48-9-0"
       d="M230.778,304.275l-0,93.346l-101.736,-58.737l-0,-93.346l-46.009,-26.564l-0,248.586l46.009,26.563l-0,-102.814l101.736,58.737l-0,102.815l46.008,26.563l0.001,-248.586l-46.009,-26.563Z"
       style="fill:#00107a;fill-rule:nonzero;" /></g></svg>
